<mxfile host="app.diagrams.net" modified="2024-07-05T06:51:00.569Z" agent="Mozilla/5.0 (X11; Linux x86_64) AppleWebKit/537.36 (KHTML, like Gecko) Chrome/126.0.0.0 Safari/537.36" etag="DQHntRBKVC09nZk_U9JP" version="24.6.4" type="github">
  <diagram name="ページ1" id="QVdreg9Fky29_SkKU2a9">
    <mxGraphModel dx="2607" dy="1380" grid="1" gridSize="10" guides="1" tooltips="1" connect="1" arrows="1" fold="1" page="1" pageScale="1" pageWidth="827" pageHeight="1169" math="1" shadow="0">
      <root>
        <mxCell id="0" />
        <mxCell id="1" parent="0" />
      </root>
    </mxGraphModel>
  </diagram>
</mxfile>
